<svg width="25" height="25" viewBox="0 0 25 25" fill="none" xmlns="http://www.w3.org/2000/svg">
<g clip-path="url(#clip0)">
<path d="M21.1207 5.3415C20.61 4.83051 20.0035 4.42515 19.3361 4.14858C18.6686 3.87202 17.9532 3.72968 17.2307 3.72968C16.5082 3.72968 15.7928 3.87202 15.1254 4.14858C14.4579 4.42515 13.8515 4.83051 13.3407 5.3415L12.2807 6.4015L11.2207 5.3415C10.189 4.30981 8.78976 3.73021 7.33073 3.73021C5.8717 3.73021 4.47242 4.30981 3.44073 5.3415C2.40904 6.37319 1.82944 7.77247 1.82944 9.2315C1.82944 10.6905 2.40904 12.0898 3.44073 13.1215L4.50073 14.1815L12.2807 21.9615L20.0607 14.1815L21.1207 13.1215C21.6317 12.6107 22.0371 12.0043 22.3136 11.3369C22.5902 10.6694 22.7326 9.95399 22.7326 9.2315C22.7326 8.50901 22.5902 7.7936 22.3136 7.12615C22.0371 6.45869 21.6317 5.85226 21.1207 5.3415V5.3415Z" stroke="white" stroke-width="2" stroke-linecap="round" stroke-linejoin="round"/>
</g>
<defs>
<clipPath id="clip0">
<rect width="24" height="24" fill="white" transform="translate(0.280731 0.731506)"/>
</clipPath>
</defs>
</svg>
